<svg version="1.0" xmlns="http://www.w3.org/2000/svg" width="682.667" height="682.667" viewBox="0 0 512 512"><path d="M246.5 105.4c-2.2.7-8.3 3.4-13.5 5.8-5.2 2.5-13.3 6.4-18 8.6-4.7 2.2-13.4 6.3-19.5 9.2-24.9 11.8-32.3 15.4-39 18.5-3.8 1.8-11.9 5.6-18 8.5-6 2.9-14.6 6.9-19 9-4.4 2.1-13.8 6.6-21 10-7.1 3.4-24.5 11.6-38.5 18.2C6.4 218.5 2.1 220.7.8 223.4c-2.2 4.9 0 7 13.9 13.7 7 3.3 15.6 7.4 18.9 9l6.2 3V283l.1 33.8-3 1.3c-6.9 2.8-12.8 11.8-12.9 19.4 0 8.8 6 18.2 13.3 20.8 1.5.6 1.7 1.5 1.2 6.9-.8 8.2-3.1 21.9-4.9 28.8-1.5 5.7-1.1 6.8 2.4 7.1 3.6.3 7 .8 15 2.4 4.7.9 9.6 1.9 11 2 1.4.2 4.7.8 7.5 1.4 2.7.5 5.1.8 5.3.6.2-.1-1.3-2.9-3.3-6-3.1-4.8-8.3-15.1-11.5-23-1.4-3.3-4.8-14.8-5.3-17.7-.3-2 .1-2.9 1.4-3.3 2.8-.9 9.4-8.9 10.6-12.8 1.4-4.5.8-12-1.1-16.2-1.8-3.7-8.3-10-11.5-11-1.2-.4-2.1-1.5-2.2-2.8-.2-7.7.1-59 .4-59.3.2-.2 7.3 2.9 15.8 7 8.5 4 20.4 9.7 26.4 12.6 27.9 13.1 32.4 15.4 32.1 15.9-.2.3-.7 3.3-1 6.6-.4 3.3-.9 7.1-1.1 8.5-.2 1.4-.9 6.3-1.5 11-.7 4.7-1.4 9.6-1.6 11-2.6 17.8-.4 25.4 11.1 36.5 17.9 17.6 52.5 29.9 96 34.3 14.7 1.5 58.1.6 67.8-1.4 1.2-.2 3.6-.6 5.2-.9 20.5-2.9 44.4-10.5 59.5-18.7 14.7-8 23.9-16.8 28.5-27.2 3-6.7 2.9-12.4-.9-40.1-1.4-10.5-2.6-19.4-2.6-19.8 0-.7 9.2-5.3 34-16.9 4.1-2 12.5-5.9 18.5-8.8 15.1-7.2 28.7-13.6 37-17.5 27.5-12.8 34.6-16.6 35.6-19.3 1.9-5.1 0-6.8-15.9-14.4-8.1-3.9-20.7-9.9-28.1-13.4-7.3-3.5-13.5-6.4-13.6-6.4-.2 0-9.2-4.3-20-9.5s-19.8-9.5-20-9.5c-.1 0-8.1-3.8-17.6-8.4-9.6-4.6-19.9-9.5-22.9-10.9-8.8-4-23.4-10.9-39.3-18.6-8.2-3.9-15-7.1-15.2-7.1-.2 0-7.2-3.3-15.6-7.4-24.3-11.6-33.1-15.7-36.9-17.1-4.8-1.6-14.7-1.7-19.5-.1z"/></svg>