<svg version="1" xmlns="http://www.w3.org/2000/svg" width="21.333" height="21.333" viewBox="0 0 16.000000 16.000000"><path d="M7.625 1.438c-.188.062-1.344.456-2.563.875-1.218.418-2.343.8-2.5.856C.2 3.969 0 4.056 0 4.35c0 .288.244.431 1.344.806.587.2 1.093.382 1.137.4.044.025-.431.207-1.05.413-1.268.419-1.468.544-1.406.862a.547.547 0 0 0 .15.294c.063.05.613.263 1.219.469C2 7.8 2.5 7.98 2.5 8c0 .019-.5.206-1.113.406C.244 8.794 0 8.931 0 9.206c0 .288.187.4 1.344.794.612.206 1.131.394 1.143.406.038.031 0 .044-1.306.5-.862.294-1.056.381-1.112.506-.188.42-.025.557 1.15.963.518.175 1.025.35 1.125.381a1526.5 1526.5 0 0 0 4.894 1.681c.38.132.762.232.843.22.075-.02.35-.1.607-.195.606-.212 3.674-1.268 5.562-1.906 1.55-.531 1.606-.55 1.681-.718.188-.42.038-.544-1.181-.963a46.712 46.712 0 0 1-1.137-.4c-.15-.063-.082-.1.843-.413 1.438-.48 1.544-.537 1.544-.88 0-.245-.275-.4-1.388-.776C14 8.2 13.5 8.02 13.5 8c0-.019.444-.181.988-.369 1.337-.456 1.38-.475 1.456-.675.162-.425.025-.519-1.55-1.05-.494-.162-.894-.318-.894-.337 0-.019.513-.207 1.131-.413 1.163-.387 1.331-.481 1.363-.793.019-.213-.163-.376-.544-.507-.531-.175-2.106-.719-6.419-2.206-1.019-.356-.994-.35-1.406-.213zm-2.181 5.13a94.92 94.92 0 0 0 2.012.682l.55.181 2.013-.687 2.019-.688 1.056.369c1.037.363 1.056.375.844.438-.12.037-.557.18-.97.325-1.737.612-4.762 1.643-4.887 1.668-.075.019-.481-.087-.906-.231-.425-.15-1.162-.4-1.644-.569-2.056-.7-3.612-1.243-3.631-1.262-.012-.013 1.931-.706 2.044-.725.019-.006.694.219 1.5.5zm-.125 2.376c2.75.95 2.556.894 2.869.825.156-.038 1.08-.338 2.056-.675l1.775-.613.975.331c.537.182 1.012.35 1.05.37.044.024-.263.155-.688.3-.875.3-2.406.818-4.162 1.424l-1.206.413-.732-.25-2.475-.85c-.962-.331-2.006-.694-2.325-.8-.318-.106-.568-.206-.556-.213.031-.031 2.006-.7 2.075-.706.038 0 .644.2 1.344.444zm8.744 2.681c0 .031-.95.363-4.65 1.625l-1.432.488-.787-.27c-.432-.15-1.619-.555-2.632-.905-1.012-.35-2.018-.694-2.23-.77-.22-.068-.395-.143-.395-.162 0-.05 1.938-.693 2.063-.693.05 0 .669.2 1.375.443l1.944.669.668.225 1.238-.419a230.11 230.11 0 0 0 2.025-.693l.775-.27 1.019.35c.562.195 1.019.363 1.019.382z"/></svg>